<svg viewBox="-55.47780678851177 -7.3524804177545775 622.9556135770235 526.7049608355092" class="mui-jaznzp" style="width: 932px; height: 788px;"><svg xmlns="http://www.w3.org/2000/svg" width="512px" height="512px" viewBox="0 0 512 512" data-bbox="81.5705747677062 40.022513467542495 348.85885046458765 423.97748653245753" style="overflow: visible;"><rect data-uid="o-94f02ac77d784efda8983d1c0b895c8f" data-fl-background="" x="0" y="0" width="512" height="512" fill="#fff5f5"></rect><g data-icon="" transform="matrix(0.45964595675468445, 0, 0, 0.45964595675468445, 138.33037819621023, 126.24705742420167)" data-uid="o-09a14e9467ad44a7bf543d6346b373c2"><path fill="#EDF2FA" data-type="circle" data-cx="255.874" data-cy="256.125" data-r="103.064" d="M255.874,256.125m-103.064,0a103.064,103.064 0 1, 0 206.128,0a103.064,103.064 0 1, 0 -206.128,0" data-uid="o-265e2aaf02d942f4851b2f512c5d1417"></path><path fill="#FEA02C" data-type="circle" data-cx="255.874" data-cy="256.125" data-r="65.996" d="M255.874,256.125m-65.996,0a65.996,65.996 0 1, 0 131.992,0a65.996,65.996 0 1, 0 -131.992,0" data-uid="o-77278ba49dc94385af752efb6cd9b195"></path><path d="M255.982 359.191c-56.973 0-103.158-46.185-103.158-103.158s46.185-103.158 103.158-103.158V10.041
	h-44.837v38.872c-25.357 5.448-49.031 15.426-70.126 29.059l-27.4-27.4l-63.203 63.25l27.377 27.377
	c-13.632 21.095-23.61 44.768-29.057 70.126H10.015v89.417h38.72c5.448 25.357 15.425 49.03 29.057 70.126l-27.377 27.377
	l63.203 63.25l27.4-27.4c21.095 13.633 44.768 23.611 70.126 29.059v38.823l44.837 0.025L255.982 359.191L255.982 359.191z" fill="#FFB954" data-uid="o-2c81f6b5c891400a954657b643643b3d"></path><path fill="#62CD4D" data-type="circle" data-cx="477.991" data-cy="115.463" data-r="23.999" d="M477.991,115.463m-23.999,0a23.999,23.999 0 1, 0 47.998,0a23.999,23.999 0 1, 0 -47.998,0" data-uid="o-0a334072ceee4cf2b0342f02976fded5"></path><path fill="#62CD4D" data-type="circle" data-cx="477.991" data-cy="396.566" data-r="23.999" d="M477.991,396.566m-23.999,0a23.999,23.999 0 1, 0 47.998,0a23.999,23.999 0 1, 0 -47.998,0" data-uid="o-3f74872e8f864e6f8a4d4ff76d98042d"></path><path fill="#FF5D5D" data-type="circle" data-cx="423.994" data-cy="478.001" data-r="23.999" d="M423.994,478.001m-23.999,0a23.999,23.999 0 1, 0 47.998,0a23.999,23.999 0 1, 0 -47.998,0" data-uid="o-1fcad98034e5439faad4d79a6f8648ac"></path><path fill="#FF5D5D" data-type="circle" data-cx="423.994" data-cy="33.998" data-r="23.999" d="M423.994,33.998m-23.999,0a23.999,23.999 0 1, 0 47.998,0a23.999,23.999 0 1, 0 -47.998,0" data-uid="o-892cb98d572a495c8e4d2b0e168601f6"></path><path fill="#2E9DE3" data-type="circle" data-cx="477.991" data-cy="256.155" data-r="23.999" d="M477.991,256.155m-23.999,0a23.999,23.999 0 1, 0 47.998,0a23.999,23.999 0 1, 0 -47.998,0" data-uid="o-b5ef3dd755654d1faaf4bdafa4316fc9"></path><path d="M205.655 128.402c5.138-2.027 7.658-7.835 5.631-12.972s-7.834-7.661-12.972-5.631
	c-29.005 11.447-53.76 31.094-71.586 56.818c-18.254 26.338-27.901 57.259-27.901 89.416c0 5.523 4.478 9.999 9.999 9.999
	c5.522 0 9.999-4.477 9.999-9.999C118.825 199.318 152.908 149.22 205.655 128.402z" data-uid="o-bda244a819af442494a8d7a2d16d14fe"></path><path d="M321.869 246.128c-5.522 0-9.999 4.477-9.999 9.999c0 30.876-25.119 55.997-55.997 55.997s-55.997-25.121-55.997-55.997
	s25.119-55.997 55.997-55.997c5.522 0 9.999-4.477 9.999-9.999s-4.478-9.999-9.999-9.999c-41.903 0-75.995 34.091-75.995 75.995
	s34.092 75.995 75.995 75.995s75.995-34.091 75.995-75.995C331.868 250.605 327.391 246.128 321.869 246.128z" data-uid="o-4f647421385347938f393c1f3f003a32"></path><path d="M348.937 255.75v0.377c0 5.523 4.478 9.999 9.999 9.999s9.999-4.477 9.999-9.999v-0.377c0-5.523-4.478-9.999-9.999-9.999
	S348.937 250.227 348.937 255.75z" data-uid="o-46c53db48c784d98b8b4be18b23e603b"></path><path d="M304.336 336.945c-1.86 1.86-2.93 4.43-2.93 7.07c0 2.63 1.069 5.21 2.93 7.07c1.861 1.86 4.43 2.92 7.07 2.92
	c2.63 0 5.21-1.06 7.069-2.92c1.86-1.86 2.931-4.44 2.931-7.07c0-2.64-1.07-5.21-2.931-7.07c-1.859-1.87-4.439-2.93-7.069-2.93
	C308.776 334.016 306.197 335.076 304.336 336.945z" data-uid="o-a6507412bcc44a319fd3ac1e2a0bc385"></path><path d="M477.987 362.569c-5.744 0-11.156 1.437-15.906 3.963l-29.592-29.592c-1.876-1.875-4.419-2.929-7.071-2.929h-72.914
	c-5.522 0-9.999 4.477-9.999 9.999s4.478 9.999 9.999 9.999h68.771l26.667 26.667c-2.52 4.746-3.954 10.152-3.954 15.889
	c0 18.747 15.251 33.998 33.998 33.998c18.747 0 33.998-15.251 33.998-33.998S496.733 362.569 477.987 362.569z M477.987 410.566
	c-7.72 0-13.999-6.28-13.999-13.999s6.28-13.999 13.999-13.999c7.72 0 13.999 6.28 13.999 13.999S485.705 410.566 477.987 410.566z" data-uid="o-9de23c4fed6f4803869949a0fb387812"></path><path d="M423.992 444.004c-4.756 0-9.285 0.985-13.399 2.757l-30.401-55.456c-1.755-3.202-5.117-5.193-8.768-5.193H265.98v-26.921
	c0-5.523-4.478-9.999-9.999-9.999c-51.368 0-93.158-41.79-93.158-93.158c0-50.746 40.787-92.139 91.299-93.134
	c0.569 0.101 1.152 0.163 1.751 0.163c38.701 0 73.766 24.36 87.255 60.615c1.498 4.027 5.314 6.516 9.372 6.516
	c1.158 0 2.337-0.203 3.486-0.63c5.176-1.926 7.811-7.683 5.885-12.858c-5.467-14.695-13.863-27.768-24.356-38.684h87.903
	c2.652 0 5.195-1.054 7.071-2.929l29.592-29.592c4.75 2.526 10.162 3.963 15.906 3.963c18.747 0 33.998-15.251 33.998-33.998
	s-15.251-33.998-33.998-33.998c-18.747 0-33.998 15.251-33.998 33.998c0 5.738 1.434 11.144 3.955 15.89l-26.667 26.667H311.86
	c-13.901-7.949-29.512-12.998-45.878-14.483v-18.075h105.441c3.642 0 6.996-1.98 8.755-5.168l30.387-55.069
	c4.122 1.778 8.659 2.768 13.427 2.768c18.747 0 33.998-15.251 33.998-33.998S442.739 0 423.992 0
	c-18.747 0-33.998 15.251-33.998 33.998c0 6.556 1.87 12.679 5.097 17.877l-29.571 53.59h-99.538V10.041
	c0-5.523-4.478-9.999-9.999-9.999h-44.838c-5.522 0-9.999 4.477-9.999 9.999v30.943c-20.66 5.234-40.331 13.385-58.662 24.311
	L120.688 43.5c-1.876-1.875-4.42-2.929-7.073-2.929c-2.652 0-5.196 1.055-7.071 2.932l-63.203 63.25
	c-3.903 3.906-3.902 10.234 0.002 14.138l21.771 21.772c-10.925 18.333-19.076 38.003-24.309 58.662H10.015
	c-5.522 0-9.999 4.477-9.999 9.999v89.417c0 5.523 4.478 9.999 9.999 9.999h30.792c5.232 20.659 13.383 40.329 24.309 58.661
	l-21.771 21.772c-3.904 3.904-3.905 10.232-0.002 14.138l63.203 63.25c1.875 1.876 4.419 2.931 7.071 2.932c0.001 0 0.001 0 0.002 0
	c2.652 0 5.195-1.054 7.071-2.929l21.795-21.794c18.333 10.925 38.003 19.077 58.661 24.311v30.894c0 5.521 4.474 9.996 9.993 9.999
	h44.837h0.006c2.651 0 5.194-1.028 7.069-2.902c1.876-1.876 2.931-4.42 2.931-7.073v-95.889h99.52l29.601 53.995
	c-3.234 5.202-5.108 11.332-5.108 17.895c0 18.747 15.251 33.998 33.998 33.998c18.747 0 33.998-15.251 33.998-33.998
	C457.991 459.255 442.739 444.004 423.992 444.004z M477.987 101.465c7.72 0 13.999 6.28 13.999 13.999s-6.28 13.999-13.999 13.999
	c-7.72 0-13.999-6.28-13.999-13.999S470.267 101.465 477.987 101.465z M423.992 19.999c7.72 0 13.999 6.28 13.999 13.999
	s-6.28 13.999-13.999 13.999c-7.72 0-13.999-6.28-13.999-13.999S416.272 19.999 423.992 19.999z M245.982 491.996l-24.838-0.014
	v-28.828c0-4.713-3.291-8.786-7.899-9.776c-23.822-5.118-46.296-14.431-66.799-27.681c-3.958-2.557-9.164-2.005-12.498 1.328
	l-20.327 20.328l-49.067-49.104l20.31-20.31c3.332-3.333 3.886-8.539 1.327-12.498c-13.249-20.503-22.562-42.976-27.678-66.798
	c-0.99-4.608-5.063-7.9-9.776-7.9H20.014v-69.418h28.721c4.714 0 8.786-3.292 9.776-7.9c5.117-23.822 14.429-46.295 27.678-66.798
	c2.559-3.958 2.005-9.165-1.327-12.498l-20.31-20.31l49.067-49.104l20.327 20.328c3.334 3.334 8.54 3.885 12.498 1.328
	c20.502-13.249 42.976-22.563 66.799-27.681c4.608-0.99 7.899-5.063 7.899-9.776V20.041h24.839v123.274
	c-57.727 5.08-103.159 53.695-103.159 112.719s45.43 107.639 103.158 112.719L245.982 491.996L245.982 491.996z M423.992 492.001
	c-7.72 0-13.999-6.28-13.999-13.999c0-7.72 6.28-13.999 13.999-13.999c7.72 0 13.999 6.28 13.999 13.999
	C437.991 485.722 431.71 492.001 423.992 492.001z" data-uid="o-06c489a818634d57b9c5099ab9a40f00"></path><path d="M477.987 222.16c-15.268 0-28.215 10.117-32.495 23.999H415.99c-5.522 0-9.999 4.477-9.999 9.999
	c0 5.523 4.478 9.999 9.999 9.999h29.501c4.28 13.881 17.227 23.999 32.495 23.999c18.747 0 33.998-15.251 33.998-33.998
	C511.985 237.411 496.733 222.16 477.987 222.16z M477.987 270.157c-7.72 0-13.999-6.28-13.999-13.999
	c0-7.72 6.28-13.999 13.999-13.999c7.72 0 13.999 6.28 13.999 13.999C491.986 263.877 485.705 270.157 477.987 270.157z" data-uid="o-e8722276a5c94eb2b770f4dfe8d0d23f"></path></g><g transform="matrix(0.24999728798866272, 0, 0, 0.24999728798866272, 207.95301308390555, 158.2047066551587)" data-uid="o-615b5822316f4d38b28befc3fda81673"><path d="m23.977 8.171c.103 1.315-.123 2.891-1.006 2.969-1.442.127-.69-1.435-.671-2.375.053-2.725-2.312-4.618-4.629-4.618-.656 0-2.181.438-1.946-.924.106-.6.623-.592 1.14-.66 3.897-.51 6.838 2.125 7.112 5.608z" fill="#ff9800" transform="matrix(21.33333396911621, 0, 0, 21.33333396911621, 0, 0)" data-uid="o-2ac68e0cf6f848a78ec66b7c60ca567e"></path><path d="m17.604 11.337c1.675.901 3.687 1.35 3.354 4.024-.08.641-.474 1.497-.872 2.044-2.831 3.898-11.371 5.536-16.703 2.574-1.788-.994-3.639-2.448-3.354-5.344.246-2.493 1.95-4.424 3.623-6.069 1.596-1.57 3.278-2.798 5.567-3.364 2.484-.614 3.218 1.422 2.549 3.43 1.439-.095 4.488-1.674 5.836-.132.594.68.367 1.897 0 2.837zm-1.811 6.333c.537-.598 1.076-1.51 1.073-2.572-.007-3.278-4.207-4.49-7.512-4.222-1.808.146-3.024.521-4.293 1.254-1.036.598-2.248 1.571-2.549 3.034-.678 3.291 2.961 4.838 5.634 5.014 3.088.203 6.179-.869 7.647-2.508z" fill="rgba(244,67,54,0)" transform="matrix(21.33333396911621, 0, 0, 21.33333396911621, 0, 0)" data-uid="o-b7b93b3e4a084618869d64d6773bd35f"></path><path d="m20.689 8.171c.141 1.004-.152 1.875-.738 1.913-.977.064-.612-.658-.671-1.517-.037-.529-.483-1.14-.872-1.32-.763-.352-1.945.256-1.945-.791 0-.778.686-.697 1.074-.726 1.698-.127 2.954 1.024 3.152 2.441z" fill="#ff9800" transform="matrix(21.33333396911621, 0, 0, 21.33333396911621, 0, 0)" data-uid="o-a884aea67084474f8716d5fe474eb8c5"></path><path d="m12.842 14.768c1.429 4.248-6.017 6.223-7.379 2.573-.911-2.441 1.277-4.383 3.555-4.618 1.945-.201 3.395.775 3.824 2.045zm-3.422.726c.303.516 1 .145.939-.264-.073-.473-.945-.403-.939.264zm-1.207 2.243c1.252-.293 1.42-2.612-.47-2.177-1.587.364-1.28 2.586.47 2.177z" fill="#212121" transform="matrix(21.33333396911621, 0, 0, 21.33333396911621, 0, 0)" data-uid="o-fbd697d7e05042eda25a2efec6beb066"></path></g></svg></svg>